<?xml version="1.0" standalone="no"?>
<!DOCTYPE svg PUBLIC "-//W3C//DTD SVG 20010904//EN"
 "http://www.w3.org/TR/2001/REC-SVG-20010904/DTD/svg10.dtd">
<svg version="1.0" xmlns="http://www.w3.org/2000/svg"
 width="748.000000pt" height="757.000000pt" viewBox="0 0 748.000000 757.000000"
 preserveAspectRatio="xMidYMid meet">

<g transform="translate(0.000000,757.000000) scale(0.100000,-0.100000)"
fill="#000000" stroke="none">
<path d="M1250 7305 c-8 -2 -49 -9 -90 -15 -133 -22 -264 -74 -395 -158 -215
-137 -359 -336 -421 -581 l-24 -94 0 -2286 c0 -2505 -3 -2389 59 -2568 59
-171 191 -345 336 -442 78 -52 191 -100 288 -122 49 -12 59 -18 62 -39 29
-154 65 -227 161 -330 61 -64 159 -129 200 -131 11 -1 1 -5 -21 -10 -22 -4
-300 -8 -618 -8 -655 -1 -629 2 -667 -76 -29 -59 -19 -108 30 -157 l38 -38
3568 0 c3565 0 3569 0 3602 20 41 25 76 98 67 140 -4 16 -15 41 -27 55 -44 56
-34 55 -591 55 -283 0 -555 3 -606 7 l-92 6 51 18 c120 42 281 184 377 331 58
88 108 207 153 363 33 116 52 145 97 145 65 0 96 -53 82 -140 -5 -30 -20 -93
-33 -140 -14 -46 -24 -86 -22 -87 2 -2 31 17 64 41 173 128 290 360 322 641 6
59 10 889 10 2390 0 2453 1 2374 -46 2520 -98 297 -365 550 -682 644 -176 53
-74 51 -2742 50 -1361 -1 -2482 -3 -2490 -4z m5098 -288 c285 -78 509 -297
587 -572 15 -53 18 -145 22 -770 l5 -710 34 -52 c125 -189 174 -405 174 -757
0 -192 -5 -228 -36 -261 -32 -35 -91 -35 -124 0 -23 24 -23 28 -25 277 -1 196
-6 272 -19 338 -48 232 -165 413 -341 526 -44 28 -245 124 -260 124 -2 0 -6
-12 -10 -27 -19 -78 -170 -346 -350 -623 l-94 -145 -1 -777 c0 -694 -2 -778
-15 -778 -9 0 -48 7 -88 15 -40 8 -160 30 -267 49 -401 72 -585 106 -597 111
-10 3 -13 124 -13 559 l0 554 -63 99 c-35 54 -92 142 -128 196 l-64 98 -3
-731 c-1 -401 -6 -730 -10 -730 -10 0 -329 58 -359 65 l-23 5 0 945 0 945 49
0 49 0 -35 79 c-18 44 -46 124 -60 178 -22 84 -26 119 -26 248 -1 177 19 277
83 412 22 47 38 89 35 93 -8 13 -166 67 -273 94 -183 46 -204 47 -1382 44
-1009 -4 -1122 -5 -1185 -21 -357 -87 -608 -263 -785 -552 -113 -184 -194
-389 -224 -564 -11 -68 -16 -159 -16 -322 0 -125 -4 -239 -9 -252 -19 -49
-101 -55 -143 -10 -23 25 -23 26 -23 286 1 287 10 358 66 533 31 98 101 260
142 333 l25 44 -5 286 c-9 496 15 621 158 816 39 53 133 146 186 183 91 64
229 115 353 131 36 5 1181 8 2545 7 2318 -1 2484 -3 2543 -19z m-2779 -1391
c23 -16 54 -50 69 -75 22 -38 27 -58 27 -117 0 -61 -4 -77 -30 -119 -20 -32
-45 -56 -74 -72 l-45 -23 -1117 2 -1117 3 -43 30 c-132 93 -111 319 35 386 39
18 88 19 1147 16 l1106 -2 42 -29z m-1381 -1593 l2 -923 -700 -2 -700 -3 0
922 c0 728 3 922 13 926 6 3 320 5 697 4 l685 -2 3 -922z m1762 2 l0 -925
-745 0 -745 0 0 925 0 925 745 0 745 0 0 -925z m2463 355 c128 -26 211 -47
227 -59 14 -10 30 -36 37 -57 15 -51 18 -1481 3 -1535 -19 -66 -18 -66 -253
-24 -117 21 -218 40 -224 43 -17 5 -19 1672 -3 1672 6 0 101 -18 213 -40z
m-5343 -1997 c132 -59 209 -227 170 -369 -20 -70 -87 -154 -151 -189 -48 -26
-64 -30 -139 -30 -73 0 -92 4 -135 27 -138 72 -207 234 -159 375 48 140 161
218 304 210 36 -2 85 -13 110 -24z m2484 11 c64 -22 147 -100 177 -166 34 -79
33 -184 -4 -260 -30 -62 -83 -115 -149 -150 -34 -18 -59 -23 -123 -23 -135 1
-218 53 -281 177 -22 43 -27 67 -27 123 -1 214 207 367 407 299z m-719 -79
c32 -31 34 -86 5 -115 -20 -20 -33 -20 -632 -20 l-612 0 -23 22 c-32 30 -31
81 2 113 l24 25 606 0 606 0 24 -25z m2109 -103 c136 -64 246 -214 298 -407
29 -107 31 -385 5 -515 -16 -76 -51 -213 -64 -247 -4 -10 12 -13 69 -13 l75 0
17 -87 c20 -101 51 -171 109 -246 55 -70 119 -124 182 -152 l49 -22 -138 -7
c-153 -8 -718 -8 -922 1 l-131 6 76 38 c103 52 176 112 253 208 256 320 348
801 213 1107 -31 71 -114 158 -171 180 -63 24 -162 15 -234 -21 -67 -33 -191
-158 -238 -237 -73 -123 -137 -301 -172 -480 -15 -78 -41 -108 -90 -108 -30 0
-43 6 -59 26 -27 35 -27 74 3 204 63 277 181 507 335 653 126 118 222 159 371
154 83 -2 104 -7 164 -35z m1542 23 c180 -53 301 -269 163 -291 -32 -5 -39 -2
-79 39 -63 67 -125 90 -220 85 -93 -6 -152 -33 -230 -105 -151 -139 -243 -320
-305 -599 -30 -135 -45 -158 -101 -158 -28 0 -42 7 -60 28 -29 33 -29 42 -3
169 41 203 119 396 221 543 58 85 174 200 242 239 103 60 265 82 372 50z
m-3646 -285 c31 -31 27 -93 -6 -119 -26 -21 -35 -21 -631 -21 l-604 0 -24 25
c-32 31 -33 80 -3 112 l21 23 614 0 c600 0 613 0 633 -20z m1895 -303 c42 -42
58 -100 58 -207 0 -231 -133 -450 -272 -450 -85 0 -125 77 -125 235 1 145 50
286 132 377 79 87 149 103 207 45z m1624 18 c17 -8 39 -34 52 -62 21 -41 24
-62 23 -148 -1 -148 -40 -268 -123 -378 -47 -63 -87 -87 -144 -87 -87 0 -130
73 -130 220 0 102 18 180 63 276 73 158 171 225 259 179z m-3660 -198 c90 -46
90 -181 0 -229 -32 -17 -62 -18 -497 -16 l-464 3 -33 37 c-19 20 -37 52 -40
71 -9 46 16 102 57 127 32 19 49 20 493 20 345 0 466 -3 484 -13z m1018 -482
c10 -115 75 -250 165 -342 50 -51 148 -112 184 -114 139 -11 -1165 -17 -2106
-9 l-95 1 51 17 c168 58 354 247 426 432 l23 60 674 -2 675 -3 3 -40z"/>
<path d="M5187 6355 c-258 -49 -489 -215 -620 -445 -41 -71 -85 -216 -97 -320
-22 -173 15 -349 109 -525 51 -96 234 -392 334 -540 140 -207 420 -605 426
-605 7 1 3 -4 168 230 302 431 551 821 625 976 103 219 111 479 21 702 -98
246 -305 430 -568 507 -115 33 -283 42 -398 20z m313 -371 c160 -45 302 -192
346 -358 18 -67 18 -227 -1 -295 -23 -89 -66 -162 -135 -231 -104 -104 -213
-150 -356 -150 -101 0 -167 15 -250 56 -179 88 -283 263 -284 474 -1 358 329
602 680 504z"/>
<path d="M3283 5523 c-52 -3 -66 -8 -83 -30 -23 -29 -25 -60 -9 -97 18 -39 55
-48 179 -44 103 3 113 5 131 27 26 32 24 84 -4 116 -20 23 -31 27 -87 30 -36
1 -93 0 -127 -2z"/>
<path d="M1320 5495 c-34 -37 -33 -90 4 -121 25 -22 36 -24 132 -24 103 0 106
1 135 29 16 16 29 39 29 51 0 29 -26 76 -45 84 -9 3 -65 6 -124 6 -102 0 -109
-1 -131 -25z"/>
</g>
</svg>
