<?xml version="1.0" standalone="no"?>
<!DOCTYPE svg PUBLIC "-//W3C//DTD SVG 20010904//EN"
 "http://www.w3.org/TR/2001/REC-SVG-20010904/DTD/svg10.dtd">
<svg version="1.0" xmlns="http://www.w3.org/2000/svg"
 width="512.000000pt" height="512.000000pt" viewBox="0 0 512.000000 512.000000"
 preserveAspectRatio="xMidYMid meet">

<g transform="translate(0.000000,512.000000) scale(0.100000,-0.100000)"
fill="#000000" stroke="none">
<path d="M2495 5106 c-37 -17 -70 -52 -84 -89 -7 -17 -11 -128 -11 -286 l0
-258 -97 -12 c-845 -110 -1534 -798 -1644 -1643 l-12 -97 -273 -3 c-257 -3
-274 -4 -300 -24 -53 -39 -69 -71 -69 -134 0 -63 16 -95 69 -134 26 -20 43
-21 300 -24 l273 -3 12 -97 c110 -844 799 -1533 1643 -1643 l97 -12 3 -273 c3
-257 4 -274 24 -300 39 -53 71 -69 134 -69 63 0 95 16 134 69 20 26 21 43 24
300 l3 273 97 12 c844 110 1533 799 1643 1643 l12 97 273 3 c257 3 274 4 300
24 53 39 69 71 69 134 0 63 -16 95 -69 134 -26 20 -43 21 -300 24 l-273 3 -12
97 c-110 845 -798 1533 -1643 1643 l-97 12 -3 273 c-3 257 -4 274 -24 300 -11
15 -32 37 -46 47 -34 25 -113 32 -153 13z m228 -1601 c372 -65 666 -337 769
-714 31 -110 31 -352 0 -462 -98 -357 -362 -617 -718 -706 -105 -26 -334 -24
-441 4 -241 64 -448 211 -577 410 -201 311 -206 711 -14 1023 206 335 597 512
981 445z"/>
<path d="M2420 3184 c-111 -23 -224 -86 -311 -173 -251 -252 -252 -650 0 -901
253 -252 651 -253 901 -1 253 254 253 648 0 902 -155 156 -374 220 -590 173z"/>
</g>
</svg>
